<?xml version="1.0" encoding="UTF-8" standalone="no"?>
<!-- Created with Inkscape (http://www.inkscape.org/) -->

<svg
   xmlns:dc="http://purl.org/dc/elements/1.1/"
   xmlns:cc="http://creativecommons.org/ns#"
   xmlns:rdf="http://www.w3.org/1999/02/22-rdf-syntax-ns#"
   xmlns:svg="http://www.w3.org/2000/svg"
   xmlns="http://www.w3.org/2000/svg"
   xmlns:sodipodi="http://sodipodi.sourceforge.net/DTD/sodipodi-0.dtd"
   xmlns:inkscape="http://www.inkscape.org/namespaces/inkscape"
   width="9.2604065mm"
   height="11.266715mm"
   viewBox="0 0 9.2604065 11.266716"
   version="1.1"
   id="svg8"
   inkscape:version="0.92.4 (5da689c313, 2019-01-14)"
   sodipodi:docname="notebook_icon_red_inkscape.svg">
  <defs
     id="defs2" />
  <sodipodi:namedview
     id="base"
     pagecolor="#ffffff"
     bordercolor="#666666"
     borderopacity="1.0"
     inkscape:pageopacity="0.0"
     inkscape:pageshadow="2"
     inkscape:zoom="8"
     inkscape:cx="-4.8144756"
     inkscape:cy="18.78152"
     inkscape:document-units="px"
     inkscape:current-layer="layer1"
     showgrid="false"
     showborder="false"
     inkscape:window-width="1920"
     inkscape:window-height="986"
     inkscape:window-x="-11"
     inkscape:window-y="-11"
     inkscape:window-maximized="1" />
  <metadata
     id="metadata5">
    <rdf:RDF>
      <cc:Work
         rdf:about="">
        <dc:format>image/svg+xml</dc:format>
        <dc:type
           rdf:resource="http://purl.org/dc/dcmitype/StillImage" />
        <dc:title></dc:title>
      </cc:Work>
    </rdf:RDF>
  </metadata>
  <g
     inkscape:label="Layer 1"
     inkscape:groupmode="layer"
     id="layer1"
     transform="translate(247.37795,196.81508)">
    <g
       id="g1508">
      <path
         inkscape:connector-curvature="0"
         style="opacity:1;fill:#ef7575;fill-opacity:1;stroke:none;stroke-width:0.15914991;stroke-miterlimit:4;stroke-dasharray:none;stroke-opacity:1"
         d="m -246.42631,-195.59927 -0.73097,0.17882 c -0.16354,0.04 -0.25623,0.23145 -0.20784,0.42924 l 1.84435,7.53927 v -4.44575 z"
         id="path906" />
      <path
         id="path908"
         d="m -241.33111,-196.81501 c -0.0781,-9.3e-4 -0.15762,0.008 -0.23712,0.0273 l -4.89663,1.19788 0.94388,3.85829 v -2.65787 c 0,-0.20362 0.13553,-0.36755 0.30389,-0.36755 h 0.0646 0.68792 0.27697 0.61904 l 1.80147,-0.4407 c 0.16937,-0.0414 0.33832,0.0583 0.37877,0.22367 l 0.0531,0.21703 h 0.57207 0.30252 0.36253 l -0.32577,-1.33165 c -0.10564,-0.43182 -0.48551,-0.72126 -0.90725,-0.72641 z"
         style="opacity:1;fill:#cd5c5c;fill-opacity:1;stroke:none;stroke-width:0.17709576;stroke-miterlimit:4;stroke-dasharray:none;stroke-opacity:1"
         inkscape:connector-curvature="0" />
      <path
         inkscape:connector-curvature="0"
         id="path912"
         d="m -244.81686,-194.35199 c -0.16836,0 -0.30391,0.16393 -0.30391,0.36755 v 8.06852 c 0,0.20362 0.13555,0.36755 0.30391,0.36755 h 0.75253 v -8.80362 z"
         style="opacity:1;fill:#ef7575;fill-opacity:1;stroke:none;stroke-width:0.15914991;stroke-miterlimit:4;stroke-dasharray:none;stroke-opacity:1" />
      <path
         id="path914"
         d="m -244.10403,-194.35198 v 8.80362 h 5.04103 c 0.52379,0 0.94546,-0.4242 0.94546,-0.95107 v -6.90152 c 0,-0.52688 -0.42167,-0.95103 -0.94546,-0.95103 z m 1.54338,1.49726 h 2.92665 c 0.17437,0 0.3148,0.13705 0.3148,0.30727 v 1.29489 c 0,0.17022 -0.14043,0.30727 -0.3148,0.30727 h -2.92665 c -0.17437,0 -0.3148,-0.13705 -0.3148,-0.30727 v -1.29489 c 0,-0.17022 0.14043,-0.30727 0.3148,-0.30727 z m 0.0678,0.43176 c -0.0793,0 -0.1431,0.0639 -0.1431,0.14313 v 0.32384 c 0,0.0793 0.0638,0.14309 0.1431,0.14309 h 2.76409 c 0.0793,0 0.1431,-0.0638 0.1431,-0.14309 v -0.32384 c 0,-0.0793 -0.0638,-0.14313 -0.1431,-0.14313 z"
         style="opacity:1;fill:#cd5c5c;fill-opacity:1;stroke:none;stroke-width:0.17709576;stroke-miterlimit:4;stroke-dasharray:none;stroke-opacity:1"
         inkscape:connector-curvature="0" />
    </g>
  </g>
</svg>
