<svg
   id="svg8"
   version="1.1"
   viewBox="0 0 10.531182 11.691987"
   height="11.691986mm"
   width="10.531182mm"
   height="40px"
   width="40px"
   >
  <defs
     id="defs2" />
  <g
     transform="translate(247.94851,196.97911)"
     id="layer1">
    <g
       transform="rotate(-9.1802329,-242.74774,-191.18172)"
       id="g1508">
      <path
         id="path906"
         d="m -246.42631,-195.59927 -0.73097,0.17882 c -0.16354,0.04 -0.25623,0.23145 -0.20784,0.42924 l 1.84435,7.53927 v -4.44575 z"
         style="opacity:1;fill:#ef7575;fill-opacity:1;stroke:none;stroke-width:0.15914991;stroke-miterlimit:4;stroke-dasharray:none;stroke-opacity:1" />
      <path
         style="opacity:1;fill:#cd5c5c;fill-opacity:1;stroke:none;stroke-width:0.17709576;stroke-miterlimit:4;stroke-dasharray:none;stroke-opacity:1"
         d="m -241.33111,-196.81501 c -0.0781,-9.3e-4 -0.15762,0.008 -0.23712,0.0273 l -4.89663,1.19788 0.94388,3.85829 v -2.65787 c 0,-0.20362 0.13553,-0.36755 0.30389,-0.36755 h 0.0646 0.68792 0.27697 0.61904 l 1.80147,-0.4407 c 0.16937,-0.0414 0.33832,0.0583 0.37877,0.22367 l 0.0531,0.21703 h 0.57207 0.30252 0.36253 l -0.32577,-1.33165 c -0.10564,-0.43182 -0.48551,-0.72126 -0.90725,-0.72641 z"
         id="path908" />
      <path
         style="opacity:1;fill:#ef7575;fill-opacity:1;stroke:none;stroke-width:0.15914991;stroke-miterlimit:4;stroke-dasharray:none;stroke-opacity:1"
         d="m -244.81686,-194.35199 c -0.16836,0 -0.30391,0.16393 -0.30391,0.36755 v 8.06852 c 0,0.20362 0.13555,0.36755 0.30391,0.36755 h 0.75253 v -8.80362 z"
         id="path912" />
      <path
         style="opacity:1;fill:#cd5c5c;fill-opacity:1;stroke:none;stroke-width:0.17709576;stroke-miterlimit:4;stroke-dasharray:none;stroke-opacity:1"
         d="m -244.10403,-194.35198 v 8.80362 h 5.04103 c 0.52379,0 0.94546,-0.4242 0.94546,-0.95107 v -6.90152 c 0,-0.52688 -0.42167,-0.95103 -0.94546,-0.95103 z m 1.54338,1.49726 h 2.92665 c 0.17437,0 0.3148,0.13705 0.3148,0.30727 v 1.29489 c 0,0.17022 -0.14043,0.30727 -0.3148,0.30727 h -2.92665 c -0.17437,0 -0.3148,-0.13705 -0.3148,-0.30727 v -1.29489 c 0,-0.17022 0.14043,-0.30727 0.3148,-0.30727 z m 0.0678,0.43176 c -0.0793,0 -0.1431,0.0639 -0.1431,0.14313 v 0.32384 c 0,0.0793 0.0638,0.14309 0.1431,0.14309 h 2.76409 c 0.0793,0 0.1431,-0.0638 0.1431,-0.14309 v -0.32384 c 0,-0.0793 -0.0638,-0.14313 -0.1431,-0.14313 z"
         id="path914" />
    </g>
  </g>
</svg>
