<?xml version="1.0" encoding="UTF-8" standalone="no"?>
<svg
   xmlns:dc="http://purl.org/dc/elements/1.1/"
   xmlns:cc="http://creativecommons.org/ns#"
   xmlns:rdf="http://www.w3.org/1999/02/22-rdf-syntax-ns#"
   xmlns:svg="http://www.w3.org/2000/svg"
   xmlns="http://www.w3.org/2000/svg"
   id="svg8"
   version="1.1"
   viewBox="0 0 139.15593 169.3044"
   height="169.3044mm"
   width="139.15593mm">
  <defs
     id="defs2" />
  <metadata
     id="metadata5">
    <rdf:RDF>
      <cc:Work
         rdf:about="">
        <dc:format>image/svg+xml</dc:format>
        <dc:type
           rdf:resource="http://purl.org/dc/dcmitype/StillImage" />
        <dc:title></dc:title>
      </cc:Work>
    </rdf:RDF>
  </metadata>
  <g
     transform="translate(211.65923,330.57719)"
     id="layer1">
    <g
       id="g965"
       transform="translate(1528.5811,1462.4208)">
      <g
         transform="rotate(-10.829737,-1670.6624,-1708.3458)"
         id="g2652">
        <g
           id="g957">
          <path
             id="path906"
             d="m -1725.94,-1774.7282 -10.9843,2.6872 c -2.4575,0.6012 -3.8504,3.478 -3.1233,6.4502 l 27.7151,113.2923 v -66.8062 z"
             style="opacity:1;fill:#333333;fill-opacity:1;stroke:none;stroke-width:2.39153981;stroke-miterlimit:4;stroke-dasharray:none;stroke-opacity:1" />
          <path
             style="opacity:1;fill:#4d4d4d;fill-opacity:1;stroke:none;stroke-width:10.05812168;stroke-miterlimit:4;stroke-dasharray:none;stroke-opacity:1"
             d="m -6233.8574,-6776.6816 c -4.4357,-0.053 -8.9518,0.4464 -13.4668,1.5507 l -278.1035,68.0332 53.6074,219.1309 v -150.9531 c 0,-11.5646 7.6975,-20.875 17.2598,-20.875 h 3.6699 39.0703 15.7305 35.1582 l 102.3144,-25.0293 c 9.6193,-2.3532 19.2145,3.3121 21.5117,12.7031 l 3.0157,12.3262 h 32.4902 17.1816 20.5899 l -18.502,-75.6309 c -6,-24.5246 -27.5746,-40.9637 -51.5273,-41.2558 z"
             transform="scale(0.26458333)"
             id="path908" />
        </g>
        <g
           transform="translate(-131.10386,-1.7336951)"
           id="g952">
          <path
             style="opacity:1;fill:#333333;fill-opacity:1;stroke:none;stroke-width:2.39153981;stroke-miterlimit:4;stroke-dasharray:none;stroke-opacity:1"
             d="m -1570.651,-1754.2516 c -2.53,0 -4.5668,2.4633 -4.5668,5.5231 v 121.2454 c 0,3.0598 2.0368,5.5231 4.5668,5.5231 h 11.3082 v -132.2916 z"
             id="path912" />
          <path
             style="opacity:1;fill:#4d4d4d;fill-opacity:1;stroke:none;stroke-width:10.05812168;stroke-miterlimit:4;stroke-dasharray:none;stroke-opacity:1"
             d="m -5895.834,-6630.2422 v 500 h 286.3047 c 29.7487,0 53.6973,-24.092 53.6973,-54.0156 v -391.9707 c 0,-29.924 -23.9486,-54.0137 -53.6973,-54.0137 z m 87.6563,85.0371 h 166.2187 c 9.9031,0 17.8789,7.7835 17.8789,17.4512 v 73.543 c 0,9.6676 -7.9758,17.4511 -17.8789,17.4511 h -166.2187 c -9.9032,0 -17.8789,-7.7835 -17.8789,-17.4511 v -73.543 c 0,-9.6677 7.9757,-17.4512 17.8789,-17.4512 z m 3.8515,24.5215 c -4.5026,0 -8.1269,3.6263 -8.1269,8.1289 v 18.3926 c 0,4.5026 3.6243,8.1269 8.1269,8.1269 h 156.9864 c 4.5025,0 8.1269,-3.6243 8.1269,-8.1269 v -18.3926 c 0,-4.5026 -3.6244,-8.1289 -8.1269,-8.1289 z"
             transform="scale(0.26458333)"
             id="path914" />
        </g>
      </g>
    </g>
  </g>
</svg>
