<?xml version="1.0" encoding="UTF-8" standalone="no"?>
<!-- Created with Inkscape (http://www.inkscape.org/) -->

<svg
   xmlns:dc="http://purl.org/dc/elements/1.1/"
   xmlns:cc="http://creativecommons.org/ns#"
   xmlns:rdf="http://www.w3.org/1999/02/22-rdf-syntax-ns#"
   xmlns:svg="http://www.w3.org/2000/svg"
   xmlns="http://www.w3.org/2000/svg"
   xmlns:xlink="http://www.w3.org/1999/xlink"
   xmlns:sodipodi="http://sodipodi.sourceforge.net/DTD/sodipodi-0.dtd"
   xmlns:inkscape="http://www.inkscape.org/namespaces/inkscape"
   width="210mm"
   height="297mm"
   viewBox="0 0 210 297"
   version="1.1"
   id="svg8"
   inkscape:version="0.92.4 (5da689c313, 2019-01-14)"
   sodipodi:docname="notebook_big_workspace.svg">
  <defs
     id="defs2">
    <linearGradient
       inkscape:collect="always"
       id="linearGradient1165">
      <stop
         style="stop-color:#e9ddaf;stop-opacity:1"
         offset="0"
         id="stop1161" />
      <stop
         style="stop-color:#f4eed7;stop-opacity:1"
         offset="1"
         id="stop1163" />
    </linearGradient>
    <linearGradient
       inkscape:collect="always"
       id="linearGradient1062">
      <stop
         style="stop-color:#ffffff;stop-opacity:1"
         offset="0"
         id="stop1058" />
      <stop
         style="stop-color:#666666;stop-opacity:1"
         offset="1"
         id="stop1060" />
    </linearGradient>
    <linearGradient
       inkscape:collect="always"
       id="linearGradient1052">
      <stop
         style="stop-color:#808080;stop-opacity:1;"
         offset="0"
         id="stop1048" />
      <stop
         style="stop-color:#808080;stop-opacity:0;"
         offset="1"
         id="stop1050" />
    </linearGradient>
    <linearGradient
       inkscape:collect="always"
       id="linearGradient1027">
      <stop
         style="stop-color:#ffd5d5;stop-opacity:1"
         offset="0"
         id="stop1023" />
      <stop
         style="stop-color:#ffe6d5;stop-opacity:1"
         offset="1"
         id="stop1025" />
    </linearGradient>
    <linearGradient
       inkscape:collect="always"
       xlink:href="#linearGradient1027"
       id="linearGradient1029"
       x1="-1466.5212"
       y1="-661.41029"
       x2="-1374.5925"
       y2="-661.41029"
       gradientUnits="userSpaceOnUse" />
    <linearGradient
       inkscape:collect="always"
       xlink:href="#linearGradient1052"
       id="linearGradient1054"
       x1="-1378.8292"
       y1="-603.80585"
       x2="-1535.9037"
       y2="-646.6441"
       gradientUnits="userSpaceOnUse" />
    <linearGradient
       inkscape:collect="always"
       xlink:href="#linearGradient1062"
       id="linearGradient1064"
       x1="-1477.8346"
       y1="-738.77441"
       x2="-1378.9709"
       y2="-648.41907"
       gradientUnits="userSpaceOnUse"
       gradientTransform="matrix(0.98982971,0.21415281,-0.11586545,0.53553843,-97.033567,38.757958)" />
    <linearGradient
       inkscape:collect="always"
       xlink:href="#linearGradient1062"
       id="linearGradient1153"
       gradientUnits="userSpaceOnUse"
       gradientTransform="matrix(0.98982971,0.21415281,-0.11586545,0.53553843,318.30328,32.771121)"
       x1="-1477.8346"
       y1="-738.77441"
       x2="-1378.9709"
       y2="-648.41907" />
    <linearGradient
       inkscape:collect="always"
       xlink:href="#linearGradient1027"
       id="linearGradient1155"
       gradientUnits="userSpaceOnUse"
       x1="-1466.5212"
       y1="-661.41029"
       x2="-1374.5925"
       y2="-661.41029"
       gradientTransform="translate(415.33685,-5.9868374)" />
    <linearGradient
       inkscape:collect="always"
       xlink:href="#linearGradient1165"
       id="linearGradient1167"
       x1="-1021.3629"
       y1="-675.01801"
       x2="-979.28778"
       y2="-703.45544"
       gradientUnits="userSpaceOnUse"
       gradientTransform="translate(-0.79375,-2.9104167)" />
    <linearGradient
       inkscape:collect="always"
       xlink:href="#linearGradient1062"
       id="linearGradient1860"
       gradientUnits="userSpaceOnUse"
       gradientTransform="matrix(0.98982971,0.21415281,-0.11586545,0.53553843,1035.8533,-140.79555)"
       x1="-1477.8346"
       y1="-738.77441"
       x2="-1378.9709"
       y2="-648.41907" />
    <linearGradient
       inkscape:collect="always"
       xlink:href="#linearGradient1027"
       id="linearGradient1862"
       gradientUnits="userSpaceOnUse"
       gradientTransform="translate(1132.8868,-179.55351)"
       x1="-1466.5212"
       y1="-661.41029"
       x2="-1374.5925"
       y2="-661.41029" />
    <linearGradient
       inkscape:collect="always"
       xlink:href="#linearGradient1165"
       id="linearGradient1864"
       gradientUnits="userSpaceOnUse"
       gradientTransform="translate(716.75625,-176.47709)"
       x1="-1021.3629"
       y1="-675.01801"
       x2="-979.28778"
       y2="-703.45544" />
  </defs>
  <sodipodi:namedview
     id="base"
     pagecolor="#ffffff"
     bordercolor="#666666"
     borderopacity="1.0"
     inkscape:pageopacity="0.0"
     inkscape:pageshadow="2"
     inkscape:zoom="0.5"
     inkscape:cx="-3034.2355"
     inkscape:cy="3527.6891"
     inkscape:document-units="px"
     inkscape:current-layer="layer1"
     showgrid="false"
     showborder="false"
     inkscape:window-width="1920"
     inkscape:window-height="986"
     inkscape:window-x="-11"
     inkscape:window-y="-11"
     inkscape:window-maximized="1"
     inkscape:snap-nodes="false"
     inkscape:object-paths="true"
     inkscape:snap-intersection-paths="true"
     inkscape:snap-smooth-nodes="true" />
  <metadata
     id="metadata5">
    <rdf:RDF>
      <cc:Work
         rdf:about="">
        <dc:format>image/svg+xml</dc:format>
        <dc:type
           rdf:resource="http://purl.org/dc/dcmitype/StillImage" />
        <dc:title></dc:title>
      </cc:Work>
    </rdf:RDF>
  </metadata>
  <g
     inkscape:label="Layer 1"
     inkscape:groupmode="layer"
     id="layer1">
    <ellipse
       style="opacity:1;fill:#f2f2f2;fill-opacity:1;stroke:none;stroke-width:0;stroke-miterlimit:4;stroke-dasharray:none;stroke-dashoffset:0;stroke-opacity:1"
       id="path980"
       cx="-162.20154"
       cy="-141.66397"
       rx="86.151024"
       ry="18.812571" />
    <rect
       style="opacity:1;fill:#cd5c5c;fill-opacity:1;stroke:none;stroke-width:0;stroke-miterlimit:4;stroke-dasharray:none;stroke-dashoffset:0;stroke-opacity:1"
       id="rect812"
       width="14.934822"
       height="111.125"
       x="336.93488"
       y="-551.65454"
       ry="2.1503747" />
    <path
       style="opacity:1;fill:#cccccc;fill-opacity:1;stroke:none;stroke-width:0;stroke-miterlimit:4;stroke-dasharray:none;stroke-dashoffset:0;stroke-opacity:1"
       d="m -433.70393,-256.81369 h 85.49088 c 0.96054,0 1.73378,0.97705 1.73381,2.19072 l 0.003,106.39778 c 1.1e-4,3.94131 -5.26541,6.45603 -5.26541,6.45603 l -81.96261,-3.04767 c -0.96009,-0.0357 -1.69928,-0.97763 -1.73381,-2.19073 l -2.9663,-104.21732 c 0,0 1.16675,-3.91524 4.70011,-5.58881 z"
       id="rect831"
       inkscape:connector-curvature="0"
       sodipodi:nodetypes="cssscssccc" />
    <rect
       style="opacity:1;fill:#ef7575;fill-opacity:1;stroke:none;stroke-width:0;stroke-miterlimit:4;stroke-dasharray:none;stroke-dashoffset:0;stroke-opacity:1"
       id="rect816"
       width="87.84166"
       height="111.125"
       x="-438.55493"
       y="-252.58046"
       ry="2.1503747" />
    <rect
       ry="2.1503747"
       y="-399.82809"
       x="-579.41913"
       height="111.125"
       width="108.47916"
       id="rect846"
       style="opacity:1;fill:#cd5c5c;fill-opacity:1;stroke:none;stroke-width:0;stroke-miterlimit:4;stroke-dasharray:none;stroke-dashoffset:0;stroke-opacity:1" />
    <path
       sodipodi:nodetypes="cssscsscsc"
       inkscape:connector-curvature="0"
       id="path848"
       d="m -678.57578,-253.53044 h 85.49088 c 0.96054,0 1.73377,0.97705 1.73381,2.19072 l 0.003,107.7207 c 6e-5,1.837 -4.11205,5.02109 -4.11205,5.02109 l -83.11597,-2.93565 c -0.96016,-0.0339 -1.71831,-0.97724 -1.73381,-2.19073 l -1.36799,-107.06446 c 0,0 2.47124,-2.74167 3.1018,-2.74167 z"
       style="opacity:1;fill:#cccccc;fill-opacity:1;stroke:none;stroke-width:0;stroke-miterlimit:4;stroke-dasharray:none;stroke-dashoffset:0;stroke-opacity:1" />
    <rect
       ry="2.1503747"
       y="-249.29721"
       x="-683.42682"
       height="111.125"
       width="87.84166"
       id="rect850"
       style="opacity:1;fill:#ef7575;fill-opacity:1;stroke:none;stroke-width:0;stroke-miterlimit:4;stroke-dasharray:none;stroke-dashoffset:0;stroke-opacity:1" />
    <path
       sodipodi:nodetypes="cssscssccc"
       inkscape:connector-curvature="0"
       id="path852"
       d="m -558.46486,-254.27879 h 85.49088 c 0.96054,0 1.73377,0.97705 1.73381,2.19072 l 0.003,107.7207 c 6e-5,1.837 -5.28283,5.14363 -5.28283,5.14363 l -81.94519,-3.05819 c -0.96009,-0.0358 -1.69928,-0.97763 -1.73381,-2.19073 l -2.9663,-104.21732 c 0,0 1.16675,-3.91524 4.70011,-5.58881 z"
       style="opacity:1;fill:#cccccc;fill-opacity:1;stroke:none;stroke-width:0;stroke-miterlimit:4;stroke-dasharray:none;stroke-dashoffset:0;stroke-opacity:1" />
    <rect
       ry="2.1503747"
       y="-250.04556"
       x="-563.31586"
       height="111.125"
       width="87.84166"
       id="rect854"
       style="opacity:1;fill:#ef7575;fill-opacity:1;stroke:none;stroke-width:0;stroke-miterlimit:4;stroke-dasharray:none;stroke-dashoffset:0;stroke-opacity:1" />
    <rect
       style="opacity:1;fill:#cd5c5c;fill-opacity:1;stroke:none;stroke-width:0;stroke-miterlimit:4;stroke-dasharray:none;stroke-dashoffset:0;stroke-opacity:1"
       id="rect877"
       width="87.84166"
       height="111.125"
       x="479.13528"
       y="-487.06406"
       ry="2.1503747" />
    <rect
       style="opacity:1;fill:#cd5c5c;fill-opacity:1;stroke:none;stroke-width:0;stroke-miterlimit:4;stroke-dasharray:none;stroke-dashoffset:0;stroke-opacity:1"
       id="rect890"
       width="12.90331"
       height="36.115623"
       x="-16.419649"
       y="-258.81891"
       ry="4.7566648" />
    <rect
       style="opacity:1;fill:#ef7575;fill-opacity:1;stroke:none;stroke-width:0;stroke-miterlimit:4;stroke-dasharray:none;stroke-dashoffset:0;stroke-opacity:1"
       id="rect940"
       width="87.84166"
       height="111.125"
       x="-11.590523"
       y="-258.81891"
       ry="2.1503747" />
    <rect
       ry="0"
       y="-258.81891"
       x="-11.17095"
       height="111.125"
       width="15.705874"
       id="rect934"
       style="opacity:1;fill:#cd5c5c;fill-opacity:1;stroke:none;stroke-width:0;stroke-miterlimit:4;stroke-dasharray:none;stroke-dashoffset:0;stroke-opacity:1" />
    <path
       sodipodi:nodetypes="cssscssccc"
       inkscape:connector-curvature="0"
       id="path856"
       d="m -8.429679,-257.93173 82.315883,1e-5 c 0.96054,0 1.733776,0.97312 1.73381,2.1819 l 0.003,105.96956 c 1.11e-4,3.92545 -5.265408,6.43005 -5.265408,6.43005 l -81.962615,-3.0354 c -0.96009,-0.0356 -1.69928,-0.9737 -1.73381,-2.18192 l -2.9663,-103.79787 c -0.0544,0.0104 2.169704,-0.0138 2.850586,-1.34972 1.421732,-2.3802 2.848438,-3.7255 5.024854,-4.21661 z"
       style="opacity:1;fill:#cccccc;fill-opacity:1;stroke:none;stroke-width:0;stroke-miterlimit:4;stroke-dasharray:none;stroke-dashoffset:0;stroke-opacity:1" />
    <rect
       ry="2.1503747"
       y="-254.16151"
       x="-14.958982"
       height="111.125"
       width="86.344948"
       id="rect858"
       style="opacity:1;fill:#ef7575;fill-opacity:1;stroke:none;stroke-width:0;stroke-miterlimit:4;stroke-dasharray:none;stroke-dashoffset:0;stroke-opacity:1" />
    <rect
       ry="3.7704005"
       y="-257.93173"
       x="-15.49619"
       height="36.006481"
       width="13.06454"
       id="rect938"
       style="opacity:1;fill:#cccccc;fill-opacity:1;stroke:none;stroke-width:0;stroke-miterlimit:4;stroke-dasharray:none;stroke-dashoffset:0;stroke-opacity:1" />
    <path
       style="opacity:1;fill:#cd5c5c;fill-opacity:1;stroke:none;stroke-width:0;stroke-miterlimit:4;stroke-dasharray:none;stroke-dashoffset:0;stroke-opacity:1"
       d="m -1.0531485,-254.16151 v 108.98895 c 0,1.19147 -0.017712,2.15067 -0.017712,2.15067 H -14.239708 c -1.228777,0 -2.218417,-0.9592 -2.21801,-2.15067 l 0.03721,-108.98461 c 5.68009,-0.0115 10.1834496,-0.004 15.3673575,-0.004 z"
       id="rect862"
       inkscape:connector-curvature="0"
       sodipodi:nodetypes="cscssccc" />
    <path
       style="opacity:1;fill:#cccccc;fill-opacity:1;stroke:none;stroke-width:0;stroke-miterlimit:4;stroke-dasharray:none;stroke-dashoffset:0;stroke-opacity:1"
       d="m -298.97288,-250.91119 h 85.49089 c 0.96054,0 1.73377,0.97705 1.73381,2.19072 l 0.003,106.39778 c 1.1e-4,3.94131 -5.26541,6.45603 -5.26541,6.45603 l -81.96262,-3.04767 c -0.96009,-0.0357 -1.69928,-0.97763 -1.73381,-2.19073 l -2.9663,-104.21732 c 0,0 1.16675,-3.91524 4.70011,-5.58881 z"
       id="path865"
       inkscape:connector-curvature="0"
       sodipodi:nodetypes="cssscssccc" />
    <rect
       style="opacity:1;fill:#ef7575;fill-opacity:1;stroke:none;stroke-width:0;stroke-miterlimit:4;stroke-dasharray:none;stroke-dashoffset:0;stroke-opacity:1"
       id="rect867"
       width="87.84166"
       height="111.125"
       x="-303.82388"
       y="-246.67796"
       ry="2.1503747" />
    <path
       sodipodi:nodetypes="sscscssss"
       inkscape:connector-curvature="0"
       id="path869"
       d="m -301.67351,-246.67796 h 10.63407 c 1.19131,0 2.15037,0 2.15037,0 v 108.97462 c 0,1.19131 -0.0172,2.15038 -0.0172,2.15038 h -12.76727 c -1.19131,0 -2.15038,-0.95907 -2.15038,-2.15038 v -106.82425 c 0,-1.19131 0.95907,-2.15037 2.15038,-2.15037 z"
       style="opacity:1;fill:#cd5c5c;fill-opacity:1;stroke:none;stroke-width:0;stroke-miterlimit:4;stroke-dasharray:none;stroke-dashoffset:0;stroke-opacity:1" />
    <path
       style="opacity:1;fill:#cccccc;fill-opacity:1;stroke:none;stroke-width:0;stroke-miterlimit:4;stroke-dasharray:none;stroke-dashoffset:0;stroke-opacity:1"
       d="m -679.57932,-102.25119 h 85.49089 c 0.96054,0 1.73377,0.97705 1.73381,2.19072 l 0.003,106.3977835 c 1.1e-4,3.9413105 -5.26541,6.4560305 -5.26541,6.4560305 l -81.96262,-3.0476705 c -0.96009,-0.0357 -1.69928,-0.97763 -1.73381,-2.19073 l -2.9663,-104.2173185 c 0,0 1.16675,-3.915245 4.70011,-5.588815 z"
       id="path871"
       inkscape:connector-curvature="0"
       sodipodi:nodetypes="cssscssccc" />
    <rect
       style="opacity:1;fill:#ef7575;fill-opacity:1;stroke:none;stroke-width:0;stroke-miterlimit:4;stroke-dasharray:none;stroke-dashoffset:0;stroke-opacity:1"
       id="rect873"
       width="87.84166"
       height="111.125"
       x="-684.43036"
       y="-98.017952"
       ry="2.1503747" />
    <path
       sodipodi:nodetypes="cscscssscc"
       inkscape:connector-curvature="0"
       id="path875"
       d="m -682.27996,-98.017955 h 10.63408 2.15037 V 10.956664 c 0,1.19131 -0.0172,2.15038 -0.0172,2.15038 h -12.76728 c -1.1913,0 -2.15037,-0.95907 -2.15037,-2.15038 V -95.867585 c 0,-0.60071 0.034,-5.282555 4.85101,-6.383605 0,0 -2.79045,1.37774 -2.70064,4.233235 z"
       style="opacity:1;fill:#cd5c5c;fill-opacity:1;stroke:none;stroke-width:0;stroke-miterlimit:4;stroke-dasharray:none;stroke-dashoffset:0;stroke-opacity:1" />
    <rect
       ry="0"
       y="-293.04083"
       x="-53.559246"
       height="111.125"
       width="11.9226"
       id="rect879"
       style="opacity:1;fill:#00ff00;fill-opacity:1;stroke:none;stroke-width:0;stroke-miterlimit:4;stroke-dasharray:none;stroke-dashoffset:0;stroke-opacity:1" />
    <path
       sodipodi:nodetypes="ccccccc"
       inkscape:connector-curvature="0"
       id="path896"
       d="m -424.33174,-389.90958 15.85783,0.002 v 111.14839 h -15.36218 l -1.77619,-110.39383 c 0.10442,-0.10168 0.77031,-0.59151 1.28054,-0.75636 z"
       style="opacity:1;fill:#cd5c5c;fill-opacity:1;stroke:none;stroke-width:0;stroke-miterlimit:4;stroke-dasharray:none;stroke-dashoffset:0;stroke-opacity:1" />
    <rect
       ry="4.7566648"
       y="-389.90756"
       x="-429.20325"
       height="36.115623"
       width="13.06454"
       id="rect898"
       style="opacity:1;fill:#cd5c5c;fill-opacity:1;stroke:none;stroke-width:0;stroke-miterlimit:4;stroke-dasharray:none;stroke-dashoffset:0;stroke-opacity:1" />
    <path
       style="opacity:1;fill:#cccccc;fill-opacity:1;stroke:none;stroke-width:0;stroke-miterlimit:4;stroke-dasharray:none;stroke-dashoffset:0;stroke-opacity:1"
       d="m -424.35468,-389.62807 h 85.49088 c 0.96054,0 1.73378,0.97705 1.73381,2.19072 l 0.003,106.39778 c 1.1e-4,3.94131 -5.2654,6.45603 -5.2654,6.45603 l -81.96262,-3.04767 c -0.96009,-0.0357 -1.69928,-0.97763 -1.73381,-2.19073 l -2.9663,-104.21732 c -0.0544,0.0104 2.1697,-0.0138 2.85059,-1.35517 0.67265,-1.32514 -0.2109,-3.96585 1.84952,-4.23364 z"
       id="path900"
       inkscape:connector-curvature="0"
       sodipodi:nodetypes="cssscsscscc" />
    <rect
       style="opacity:1;fill:#ef7575;fill-opacity:1;stroke:none;stroke-width:0;stroke-miterlimit:4;stroke-dasharray:none;stroke-dashoffset:0;stroke-opacity:1"
       id="rect902"
       width="87.84166"
       height="111.125"
       x="-429.20569"
       y="-385.39484"
       ry="2.1503747" />
    <rect
       style="opacity:1;fill:#cccccc;fill-opacity:1;stroke:none;stroke-width:0;stroke-miterlimit:4;stroke-dasharray:none;stroke-dashoffset:0;stroke-opacity:1"
       id="rect904"
       width="13.06454"
       height="36.115623"
       x="-428.70715"
       y="-389.62808"
       ry="4.7566648" />
    <path
       sodipodi:nodetypes="cscssccc"
       inkscape:connector-curvature="0"
       id="path906"
       d="m -413.80315,-385.39484 v 108.97462 c 0,1.19131 -0.0177,2.15038 -0.0177,2.15038 h -13.16711 c -1.22862,0 -2.21813,-0.95907 -2.21772,-2.15038 l 0.0372,-108.97028 c 5.67934,-0.0115 10.18211,-0.004 15.36533,-0.004 z"
       style="opacity:1;fill:#cd5c5c;fill-opacity:1;stroke:none;stroke-width:0;stroke-miterlimit:4;stroke-dasharray:none;stroke-dashoffset:0;stroke-opacity:1" />
    <path
       style="fill:none;stroke:#000000;stroke-width:0.26458332px;stroke-linecap:butt;stroke-linejoin:miter;stroke-opacity:1"
       d="M 287.36819,-512.71976 528.33838,-722.25907"
       id="path924"
       inkscape:connector-curvature="0" />
    <path
       style="fill:none;stroke:#000000;stroke-width:0.26458332px;stroke-linecap:butt;stroke-linejoin:miter;stroke-opacity:1"
       d="m 366.69379,-565.10459 211.036,-220.01625"
       id="path926"
       inkscape:connector-curvature="0" />
    <rect
       style="opacity:1;fill:#000000;fill-opacity:1;stroke:none;stroke-width:0;stroke-miterlimit:4;stroke-dasharray:none;stroke-dashoffset:0;stroke-opacity:1"
       id="rect946"
       width="255.58749"
       height="262.99582"
       x="183.09166"
       y="-339.7485"
       ry="58.274551" />
    <rect
       ry="55.016968"
       y="-332.39771"
       x="190.23541"
       height="248.29419"
       width="241.29999"
       id="rect950"
       style="opacity:1;fill:#999999;fill-opacity:1;stroke:none;stroke-width:0;stroke-miterlimit:4;stroke-dasharray:none;stroke-dashoffset:0;stroke-opacity:1" />
    <ellipse
       ry="10.019786"
       rx="45.884998"
       cy="-137.52817"
       cx="-147.60863"
       id="ellipse985"
       style="opacity:1;fill:#e6e6e6;fill-opacity:1;stroke:none;stroke-width:0;stroke-miterlimit:4;stroke-dasharray:none;stroke-dashoffset:0;stroke-opacity:1" />
    <g
       id="g992">
      <rect
         style="opacity:1;fill:#ef7575;fill-opacity:1;stroke:none;stroke-width:0;stroke-miterlimit:4;stroke-dasharray:none;stroke-dashoffset:0;stroke-opacity:1"
         id="rect968"
         width="87.84166"
         height="111.125"
         x="-188.33218"
         y="-252.4689"
         ry="2.1503747" />
      <path
         id="rect966"
         transform="scale(0.26458333)"
         d="M -712.08008 -954.21289 C -722.03986 -954.21289 -730.05859 -946.19416 -730.05859 -936.23438 L -730.05859 -835.69141 C -730.05859 -825.73162 -722.03986 -817.71289 -712.08008 -817.71289 L -710.2207 -817.71289 L -710.2207 -534.21289 L -650.85938 -534.21289 L -650.85938 -954.21289 L -699.26758 -954.21289 L -710.2207 -954.21289 L -712.08008 -954.21289 z "
         style="opacity:1;fill:#cd5c5c;fill-opacity:1;stroke:none;stroke-width:0;stroke-miterlimit:4;stroke-dasharray:none;stroke-dashoffset:0;stroke-opacity:1" />
      <path
         id="path972"
         transform="scale(0.26458333)"
         d="M -712.31836 -950.85938 C -720.21304 -950.85937 -726.56836 -944.50406 -726.56836 -936.60938 L -726.56836 -930.17969 C -728.35481 -929.83044 -729.7084 -929.80632 -729.625 -929.82227 L -718.41406 -537.51562 C -718.28356 -532.94912 -715.49001 -529.40213 -711.86133 -529.26758 L -402.08203 -517.79688 C -402.08203 -517.79688 -382.18122 -527.26131 -382.18164 -542.09766 L -382.19141 -942.61328 C -382.19156 -947.1819 -385.11375 -950.85938 -388.74414 -950.85938 L -691.44141 -950.85938 L -699.85938 -950.85938 L -712.31836 -950.85938 z "
         style="opacity:1;fill:#cccccc;fill-opacity:1;stroke:none;stroke-width:0;stroke-miterlimit:4;stroke-dasharray:none;stroke-dashoffset:0;stroke-opacity:1" />
      <rect
         ry="2.1503747"
         y="-247.81151"
         x="-191.70065"
         height="111.125"
         width="86.344948"
         id="rect974"
         style="opacity:1;fill:#ef7575;fill-opacity:1;stroke:none;stroke-width:0;stroke-miterlimit:4;stroke-dasharray:none;stroke-dashoffset:0;stroke-opacity:1" />
      <path
         style="opacity:1;fill:#cd5c5c;fill-opacity:1;stroke:none;stroke-width:0;stroke-miterlimit:4;stroke-dasharray:none;stroke-dashoffset:0;stroke-opacity:1"
         d="m -177.79482,-247.81151 v 108.98895 c 0,1.19147 -0.0177,2.15067 -0.0177,2.15067 h -13.16885 c -1.22877,0 -2.21841,-0.9592 -2.21801,-2.15067 l 0.0372,-108.98461 c 5.68009,-0.0115 10.18345,-0.004 15.36736,-0.004 z"
         id="path978"
         inkscape:connector-curvature="0"
         sodipodi:nodetypes="cscssccc" />
    </g>
    <g
       id="g1137">
      <path
         sodipodi:nodetypes="ccccc"
         inkscape:connector-curvature="0"
         id="rect1056"
         d="m -1474.2397,-673.36657 100.2199,63.24329 -91.3974,6.12125 -155.7826,-69.74482 z"
         style="opacity:0.69499966;fill:url(#linearGradient1064);fill-opacity:1;stroke:none;stroke-width:0;stroke-miterlimit:4;stroke-dasharray:none;stroke-dashoffset:0;stroke-opacity:1" />
      <rect
         ry="2.1503747"
         y="-719.5882"
         x="-1461.8058"
         height="111.125"
         width="87.84166"
         id="rect998"
         style="opacity:1;fill:#ef7575;fill-opacity:1;stroke:none;stroke-width:0;stroke-miterlimit:4;stroke-dasharray:none;stroke-dashoffset:0;stroke-opacity:1" />
      <path
         style="opacity:1;fill:#cd5c5c;fill-opacity:1;stroke:none;stroke-width:0;stroke-miterlimit:4;stroke-dasharray:none;stroke-dashoffset:0;stroke-opacity:1"
         d="m -1461.8781,-719.58814 c -2.6352,0 -4.7568,2.12162 -4.7568,4.75681 v 26.60199 c 0,2.6352 2.1216,4.75682 4.7568,4.75682 h 0.4919 v 75.00937 h 15.7061 v -111.12499 h -12.808 -2.8981 z"
         id="path1000"
         inkscape:connector-curvature="0" />
      <path
         style="opacity:1;fill:url(#linearGradient1029);fill-opacity:1;stroke:none;stroke-width:0;stroke-miterlimit:4;stroke-dasharray:none;stroke-dashoffset:0;stroke-opacity:1"
         d="m -1461.9412,-718.70086 c -2.0888,0 -3.7703,1.68151 -3.7703,3.77031 v 1.70119 c -0.4726,0.0924 -0.8308,0.0988 -0.8087,0.0946 l 2.9662,103.7978 c 0.034,1.20822 0.7737,2.14669 1.7338,2.18229 l 81.9624,3.03496 c 0,0 5.2654,-2.50413 5.2653,-6.42958 v -105.96976 c -10e-5,-1.20878 -0.7732,-2.18178 -1.7338,-2.18178 h -80.0886 -2.2273 z"
         id="path1002"
         inkscape:connector-curvature="0" />
      <rect
         style="opacity:1;fill:#ef7575;fill-opacity:1;stroke:none;stroke-width:0;stroke-miterlimit:4;stroke-dasharray:none;stroke-dashoffset:0;stroke-opacity:1"
         id="rect1004"
         width="86.344948"
         height="111.125"
         x="-1465.1742"
         y="-714.93085"
         ry="2.1503747" />
      <path
         sodipodi:nodetypes="cscssccc"
         inkscape:connector-curvature="0"
         id="path1006"
         d="m -1451.2684,-714.93083 v 108.98895 c 0,1.19147 -0.018,2.15067 -0.018,2.15067 h -13.1689 c -1.2287,0 -2.2184,-0.9592 -2.218,-2.15067 l 0.037,-108.98461 c 5.6801,-0.0115 10.1835,-0.004 15.3674,-0.004 z"
         style="opacity:1;fill:#cd5c5c;fill-opacity:1;stroke:none;stroke-width:0;stroke-miterlimit:4;stroke-dasharray:none;stroke-dashoffset:0;stroke-opacity:1" />
    </g>
    <g
       id="g1192">
      <path
         style="opacity:0.69499966;fill:url(#linearGradient1153);fill-opacity:1;stroke:none;stroke-width:0;stroke-miterlimit:4;stroke-dasharray:none;stroke-dashoffset:0;stroke-opacity:1"
         d="m -1058.9029,-679.35341 100.21995,63.24329 -91.39745,6.12125 -155.7826,-69.74482 z"
         id="path1139"
         inkscape:connector-curvature="0"
         sodipodi:nodetypes="ccccc" />
      <rect
         style="opacity:1;fill:#ef7575;fill-opacity:1;stroke:none;stroke-width:0;stroke-miterlimit:4;stroke-dasharray:none;stroke-dashoffset:0;stroke-opacity:1"
         id="rect1141"
         width="87.84166"
         height="111.125"
         x="-1046.469"
         y="-725.57501"
         ry="2.1503747" />
      <path
         inkscape:connector-curvature="0"
         id="path1143"
         d="m -1046.5412,-725.57498 c -2.6353,0 -4.7568,2.12162 -4.7568,4.75681 v 26.60199 c 0,2.6352 2.1215,4.75682 4.7568,4.75682 h 0.4919 v 75.00937 h 15.7061 v -111.12499 h -12.808 -2.8981 z"
         style="opacity:1;fill:#cd5c5c;fill-opacity:1;stroke:none;stroke-width:0;stroke-miterlimit:4;stroke-dasharray:none;stroke-dashoffset:0;stroke-opacity:1" />
      <path
         inkscape:connector-curvature="0"
         id="path1145"
         d="m -1046.6044,-724.6877 c -2.0888,0 -3.7702,1.68151 -3.7702,3.77031 v 1.70119 c -0.4726,0.0924 -0.8309,0.0988 -0.8087,0.0946 l 2.9661,103.7978 c 0.034,1.20822 0.7738,2.14669 1.7338,2.18229 l 81.96245,3.03496 c 0,0 5.2654,-2.50413 5.2653,-6.42958 v -105.96976 c -1e-4,-1.20878 -0.7732,-2.18178 -1.7338,-2.18178 h -80.08855 -2.2273 z"
         style="opacity:1;fill:url(#linearGradient1155);fill-opacity:1;stroke:none;stroke-width:0;stroke-miterlimit:4;stroke-dasharray:none;stroke-dashoffset:0;stroke-opacity:1" />
      <rect
         ry="2.1503747"
         y="-720.91766"
         x="-1049.8374"
         height="111.125"
         width="86.344948"
         id="rect1147"
         style="opacity:1;fill:#ef7575;fill-opacity:1;stroke:none;stroke-width:0;stroke-miterlimit:4;stroke-dasharray:none;stroke-dashoffset:0;stroke-opacity:1" />
      <path
         style="opacity:1;fill:#cd5c5c;fill-opacity:1;stroke:none;stroke-width:0;stroke-miterlimit:4;stroke-dasharray:none;stroke-dashoffset:0;stroke-opacity:1"
         d="m -1035.9315,-720.91767 v 108.98895 c 0,1.19147 -0.018,2.15067 -0.018,2.15067 h -13.169 c -1.2286,0 -2.2183,-0.9592 -2.2179,-2.15067 l 0.037,-108.98461 c 5.6801,-0.0115 10.1836,-0.004 15.3675,-0.004 z"
         id="path1149"
         inkscape:connector-curvature="0"
         sodipodi:nodetypes="cscssccc" />
      <rect
         ry="4.3291149"
         y="-707.69733"
         x="-1023.2792"
         height="30.352085"
         width="44.320221"
         id="rect1159"
         style="opacity:1;fill:url(#linearGradient1167);fill-opacity:1;stroke:none;stroke-width:0;stroke-miterlimit:4;stroke-dasharray:none;stroke-dashoffset:0;stroke-opacity:1" />
      <rect
         style="opacity:1;fill:#ef7575;fill-opacity:1;stroke:#464fd7;stroke-width:0;stroke-miterlimit:4;stroke-dasharray:none;stroke-dashoffset:0;stroke-opacity:1"
         id="rect1179"
         width="35.147797"
         height="3.5999181"
         x="-1018.6929"
         y="-702.48438"
         ry="0.069661856" />
      <rect
         ry="0.051742069"
         y="-697.93976"
         x="-1014.1722"
         height="2.6738768"
         width="26.106392"
         id="rect1181"
         style="opacity:1;fill:#ef7575;fill-opacity:1;stroke:#464fd7;stroke-width:0;stroke-miterlimit:4;stroke-dasharray:none;stroke-dashoffset:0;stroke-opacity:1" />
    </g>
    <g
       id="g1884"
       transform="translate(-478.94699,182.59854)">
      <path
         sodipodi:nodetypes="ccccc"
         inkscape:connector-curvature="0"
         id="path1840"
         d="m -341.3529,-852.92008 100.21995,63.24329 -91.39745,6.12125 -155.7826,-69.74482 z"
         style="opacity:0.69499966;fill:url(#linearGradient1860);fill-opacity:1;stroke:none;stroke-width:0;stroke-miterlimit:4;stroke-dasharray:none;stroke-dashoffset:0;stroke-opacity:1" />
      <rect
         ry="2.1724885"
         y="-899.71307"
         x="-328.91901"
         height="112.26778"
         width="88.745003"
         id="rect1842"
         style="opacity:1;fill:#ef7575;fill-opacity:1;stroke:none;stroke-width:0;stroke-miterlimit:4;stroke-dasharray:none;stroke-dashoffset:0;stroke-opacity:1" />
      <path
         style="opacity:1;fill:#cd5c5c;fill-opacity:1;stroke:none;stroke-width:0;stroke-miterlimit:4;stroke-dasharray:none;stroke-dashoffset:0;stroke-opacity:1"
         d="m -329.02014,-899.70389 c -2.64864,0 -4.78087,2.13235 -4.78087,4.78088 v 26.73658 c 0,2.64853 2.13223,4.78089 4.78087,4.78089 h 0.49439 v 75.38888 h 15.78556 v -111.68723 h -12.8728 -2.91276 z"
         id="path1844"
         inkscape:connector-curvature="0" />
      <path
         style="opacity:1;fill:url(#linearGradient1862);fill-opacity:1;stroke:none;stroke-width:0;stroke-miterlimit:4;stroke-dasharray:none;stroke-dashoffset:0;stroke-opacity:1"
         d="m -329.0544,-898.25437 c -2.0888,0 -3.7702,1.68151 -3.7702,3.77031 v 1.70119 c -0.4726,0.0924 -0.8309,0.0988 -0.8087,0.0946 l 2.9661,103.7978 c 0.034,1.20822 0.7738,2.14669 1.7338,2.18229 l 81.96245,3.03496 c 0,0 5.2654,-2.50413 5.2653,-6.42958 v -105.96976 c -1e-4,-1.20878 -0.7732,-2.18178 -1.7338,-2.18178 h -80.08855 -2.2273 z"
         id="path1846"
         inkscape:connector-curvature="0" />
      <rect
         style="opacity:1;fill:#ef7575;fill-opacity:1;stroke:none;stroke-width:0;stroke-miterlimit:4;stroke-dasharray:none;stroke-dashoffset:0;stroke-opacity:1"
         id="rect1848"
         width="86.344948"
         height="111.125"
         x="-332.28741"
         y="-894.48431"
         ry="2.1503747" />
      <path
         sodipodi:nodetypes="cscssccc"
         inkscape:connector-curvature="0"
         id="path1850"
         d="m -318.3815,-894.48434 v 108.98895 c 0,1.19147 -0.018,2.15067 -0.018,2.15067 h -13.169 c -1.2286,0 -2.2183,-0.9592 -2.2179,-2.15067 l 0.037,-108.98461 c 5.6801,-0.0115 10.1836,-0.004 15.3675,-0.004 z"
         style="opacity:1;fill:#cd5c5c;fill-opacity:1;stroke:none;stroke-width:0;stroke-miterlimit:4;stroke-dasharray:none;stroke-dashoffset:0;stroke-opacity:1" />
      <rect
         style="opacity:1;fill:url(#linearGradient1864);fill-opacity:1;stroke:none;stroke-width:0;stroke-miterlimit:4;stroke-dasharray:none;stroke-dashoffset:0;stroke-opacity:1"
         id="rect1852"
         width="44.320221"
         height="30.352085"
         x="-305.72919"
         y="-881.26398"
         ry="4.3291149" />
      <rect
         ry="0.069661856"
         y="-876.05103"
         x="-301.14288"
         height="3.5999181"
         width="35.147797"
         id="rect1854"
         style="opacity:1;fill:#ef7575;fill-opacity:1;stroke:#464fd7;stroke-width:0;stroke-miterlimit:4;stroke-dasharray:none;stroke-dashoffset:0;stroke-opacity:1" />
      <rect
         style="opacity:1;fill:#ef7575;fill-opacity:1;stroke:#464fd7;stroke-width:0;stroke-miterlimit:4;stroke-dasharray:none;stroke-dashoffset:0;stroke-opacity:1"
         id="rect1856"
         width="26.106392"
         height="2.6738768"
         x="-296.62219"
         y="-871.50641"
         ry="0.051742069" />
    </g>
  </g>
</svg>
