<svg
   id="svg8"
   version="1.1"
   viewBox="0 0 9.0454417 9.8852437"
   height="9.8852434mm"
   width="9.0454416mm"
   >
  <defs
     id="defs2" />
  <g
     transform="translate(240.62427,249.63161)"
     id="layer1">
    <g
       id="g7132">
      <g
         id="g7033"
         transform="matrix(1.0974725,0,0,1.0974725,26.143003,22.624595)">
        <path
           style="opacity:1;fill:#333333;fill-opacity:1;stroke:none;stroke-width:0.1223064;stroke-miterlimit:4;stroke-dasharray:none;stroke-opacity:1"
           d="m -240.94137,-245.73856 c -0.12751,0.022 -0.20877,0.1638 -0.1822,0.31801 l 1.05284,6.11061 c 0.0266,0.15421 0.15061,0.26067 0.27812,0.2387 l 0.56992,-0.0982 -1.14876,-6.66733 z"
           id="path6371" />
        <path
           id="path6373"
           transform="matrix(0.26458334,0,0,0.26458334,-242.76968,-247.90608)"
           d="m 23.935547,5.3144531 c -0.182723,-0.00574 -0.369228,0.00873 -0.556641,0.041016 L 8.9511719,7.8398438 13.292969,33.039062 27.720703,30.554688 c 1.499301,-0.25852 2.498124,-1.681347 2.238281,-3.189454 L 26.554688,7.6113281 C 26.327491,6.2917014 25.214608,5.354612 23.935547,5.3144531 Z M 22.484375,9.921875 c 0.499124,-0.086173 0.968791,0.235362 1.052734,0.722656 l 0.638672,3.707031 c 0.08391,0.487219 -0.250762,0.949135 -0.75,1.035157 l -8.376953,1.443359 c -0.499086,0.08617 -0.968753,-0.237315 -1.052734,-0.724609 l -0.638672,-3.707031 c -0.08391,-0.487219 0.250762,-0.947182 0.75,-1.033204 z m -0.474609,1.220703 -7.125,1.226563 c -0.0926,0.01512 -0.154546,0.104667 -0.138672,0.197265 l 0.05859,0.332032 c 0.01512,0.0926 0.102714,0.154545 0.195312,0.138671 l 7.125,-1.226562 c 0.0926,-0.01512 0.154546,-0.104667 0.138672,-0.197266 l -0.05859,-0.333984 c -0.01512,-0.0926 -0.102714,-0.152593 -0.195312,-0.136719 z m -0.808594,1.136719 -5.173828,0.890625 c -0.05594,0.01134 -0.09186,0.0632 -0.08203,0.11914 l 0.0332,0.201172 c 0.01134,0.05594 0.06358,0.09343 0.11914,0.08399 l 5.171875,-0.892578 c 0.05594,-0.01134 0.09186,-0.06125 0.08203,-0.117188 l -0.0332,-0.201172 c -0.01134,-0.05594 -0.06163,-0.09343 -0.117187,-0.08398 z m -0.345703,0.785156 -4.240235,0.728516 c -0.05594,0.01134 -0.09186,0.0632 -0.08203,0.11914 l 0.0332,0.201172 c 0.01134,0.05594 0.06163,0.09343 0.117188,0.08399 l 4.240234,-0.730469 c 0.05594,-0.01134 0.09381,-0.06358 0.08398,-0.119141 l -0.03516,-0.201172 c -0.01134,-0.05594 -0.06163,-0.09148 -0.117187,-0.08203 z"
           style="opacity:1;fill:#4d4d4d;fill-opacity:1;stroke:none;stroke-width:0.51438522;stroke-miterlimit:4;stroke-dasharray:none;stroke-opacity:1" />
      </g>
      <g
         id="g7082"
         transform="matrix(1.0974725,0,0,1.0974725,32.595602,24.721816)">
        <path
           id="path7025"
           d="m -248.29374,-248.39164 -0.5302,0.23048 c -0.11864,0.0516 -0.16427,0.20895 -0.10181,0.35243 l 2.36989,5.44412 -0.58033,-3.36672 z"
           style="opacity:1;fill:#333333;fill-opacity:1;stroke:none;stroke-width:0.1223064;stroke-miterlimit:4;stroke-dasharray:none;stroke-opacity:1" />
        <path
           id="path7027"
           transform="matrix(0.26458334,0,0,0.26458334,-242.76968,-247.90608)"
           d="m -6.4414062,-7.8632812 c -0.1504252,-0.00136 -0.3019817,0.0087 -0.453125,0.035156 -0.224126,0.034016 -0.4480503,0.1004464 -0.6660157,0.1953125 l -13.4238281,5.84375 4.5625,10.4824219 -1.294922,-7.5117188 c -0.100535,-0.5828409 0.207488,-1.11997537 0.689453,-1.20312498 l 2.154297,-0.37109374 0.002,0.007813 2.214844,-0.38085938 4.9199219,-2.1367188 c 0.5187461,-0.225279 1.1165178,0.010551 1.3417969,0.5292969 l 0.2128906,0.4921875 0.2929687,-0.050781 1.6367188,-0.2832032 0.8652343,-0.1484374 1.0390626,-0.1796876 L -3.9375,-6.1933594 C -4.3884732,-7.22929 -5.3865146,-7.849964 -6.4394531,-7.859375 Z"
           style="opacity:1;fill:#4d4d4d;fill-opacity:1;stroke:none;stroke-width:0.51438516;stroke-miterlimit:4;stroke-dasharray:none;stroke-opacity:1" />
      </g>
    </g>
  </g>
</svg>
